<?xml version="1.0" encoding="utf-8"?>
<!-- Generator: Adobe Illustrator 16.0.2, SVG Export Plug-In . SVG Version: 6.00 Build 0)  -->
<!DOCTYPE svg PUBLIC "-//W3C//DTD SVG 1.1//EN" "http://www.w3.org/Graphics/SVG/1.1/DTD/svg11.dtd">
<svg version="1.1" id="Layer_1" xmlns="http://www.w3.org/2000/svg" xmlns:xlink="http://www.w3.org/1999/xlink" x="0px" y="0px"
	 width="181.492px" height="124.494px" viewBox="0 0 181.492 124.494" enable-background="new 0 0 181.492 124.494"
	 xml:space="preserve">
<path fill-rule="evenodd" clip-rule="evenodd" fill="#5D87A1" d="M121.272,17.676c-0.794,0-1.354,0.095-1.919,0.235v0.094h0.092
	c0.378,0.747,1.033,1.265,1.498,1.92c0.377,0.749,0.704,1.495,1.078,2.244c0.047-0.045,0.092-0.094,0.092-0.094
	c0.659-0.466,0.986-1.215,0.986-2.34c-0.282-0.329-0.327-0.654-0.563-0.983C122.257,18.285,121.647,18.051,121.272,17.676"/>
<g>
	<path fill="#00758F" d="M46.812,110.06h-6.483c-0.229-10.942-0.86-21.232-1.894-30.872h-0.057l-9.871,30.872H23.57l-9.812-30.872
		h-0.058c-0.728,9.258-1.186,19.548-1.376,30.872H6.414c0.382-13.772,1.338-26.684,2.868-38.735h8.035l9.354,28.462h0.058
		l9.411-28.462h7.688C45.512,85.44,46.506,98.354,46.812,110.06"/>
	<path fill="#00758F" d="M74.93,81.482c-2.64,14.324-6.122,24.734-10.444,31.229c-3.368,5.004-7.058,7.506-11.075,7.506
		c-1.071,0-2.392-0.323-3.959-0.964v-3.453c0.766,0.112,1.664,0.172,2.697,0.172c1.874,0,3.385-0.518,4.534-1.552
		c1.376-1.26,2.064-2.676,2.064-4.245c0-1.072-0.537-3.271-1.606-6.598l-7.115-22.095h6.369l5.106,16.524
		c1.147,3.752,1.626,6.371,1.435,7.864c2.793-7.46,4.744-15.59,5.854-24.389H74.93z"/>
	<polygon fill="#F29111" points="161.234,110.06 142.814,110.06 142.814,71.325 149.013,71.325 149.013,105.295 161.234,105.295 	
		"/>
	<path fill-rule="evenodd" clip-rule="evenodd" fill="#F29111" d="M137.995,110.995l-7.12-3.511c0.634-0.521,1.236-1.081,1.781-1.73
		c3.022-3.554,4.535-8.814,4.535-15.778c0-12.814-5.03-19.226-15.092-19.226c-4.935,0-8.78,1.625-11.535,4.88
		c-3.023,3.558-4.533,8.798-4.533,15.723c0,6.81,1.338,11.805,4.016,14.978c2.449,2.868,6.141,4.304,11.077,4.304
		c1.843,0,3.534-0.227,5.071-0.681l9.271,5.396L137.995,110.995z M114.927,102.311c-1.569-2.524-2.354-6.576-2.354-12.163
		c0-9.755,2.966-14.635,8.895-14.635c3.1,0,5.375,1.167,6.83,3.499c1.567,2.526,2.353,6.543,2.353,12.052
		c0,9.832-2.966,14.75-8.895,14.75C118.656,105.814,116.38,104.649,114.927,102.311"/>
	<path fill="#F29111" d="M103.33,99.324c0,3.285-1.207,5.981-3.613,8.092c-2.408,2.101-5.643,3.154-9.694,3.154
		c-3.788,0-7.461-1.212-11.018-3.617l1.664-3.327c3.061,1.53,5.831,2.294,8.318,2.294c2.333,0,4.158-0.519,5.479-1.545
		c1.318-1.033,2.108-2.474,2.108-4.302c0-2.301-1.604-4.267-4.547-5.915c-2.718-1.491-8.147-4.604-8.147-4.604
		c-2.942-2.146-4.417-4.449-4.417-8.243c0-3.138,1.1-5.674,3.297-7.604c2.202-1.934,5.043-2.9,8.522-2.9
		c3.596,0,6.865,0.96,9.811,2.872l-1.496,3.324c-2.52-1.068-5.005-1.604-7.455-1.604c-1.987,0-3.52,0.478-4.588,1.438
		c-1.074,0.952-1.737,2.177-1.737,3.67c0,2.294,1.639,4.284,4.664,5.965c2.752,1.492,8.314,4.665,8.314,4.665
		C101.822,93.278,103.33,95.561,103.33,99.324"/>
	<path fill-rule="evenodd" clip-rule="evenodd" fill="#00758F" d="M169.012,58.349c-3.746-0.094-6.646,0.28-9.08,1.311
		c-0.702,0.28-1.823,0.28-1.92,1.17c0.377,0.374,0.422,0.981,0.752,1.499c0.561,0.936,1.541,2.197,2.433,2.854
		c0.982,0.749,1.966,1.495,2.997,2.15c1.823,1.128,3.884,1.78,5.659,2.904c1.033,0.654,2.06,1.496,3.093,2.2
		c0.513,0.374,0.838,0.983,1.495,1.215v-0.142c-0.329-0.42-0.422-1.028-0.747-1.499c-0.468-0.465-0.937-0.889-1.405-1.354
		c-1.358-1.825-3.045-3.415-4.866-4.726c-1.499-1.032-4.777-2.437-5.383-4.163c0,0-0.049-0.05-0.095-0.096
		c1.029-0.095,2.249-0.47,3.23-0.754c1.589-0.42,3.04-0.325,4.678-0.745c0.75-0.188,1.499-0.424,2.251-0.654v-0.424
		c-0.847-0.841-1.452-1.966-2.342-2.761c-2.385-2.059-5.009-4.069-7.723-5.757c-1.453-0.937-3.325-1.542-4.87-2.34
		c-0.559-0.281-1.494-0.42-1.823-0.891c-0.843-1.029-1.313-2.385-1.92-3.604c-1.355-2.571-2.669-5.425-3.837-8.144
		c-0.842-1.824-1.357-3.648-2.387-5.334c-4.823-7.958-10.063-12.776-18.113-17.504c-1.732-0.985-3.791-1.405-5.989-1.92
		c-1.172-0.049-2.341-0.14-3.511-0.186c-0.75-0.329-1.5-1.219-2.154-1.64c-2.669-1.684-9.546-5.334-11.513-0.514
		c-1.264,3.044,1.872,6.038,2.949,7.583c0.795,1.075,1.826,2.294,2.385,3.509c0.328,0.796,0.422,1.64,0.751,2.481
		c0.748,2.059,1.449,4.353,2.434,6.273c0.514,0.983,1.074,2.014,1.729,2.899c0.378,0.518,1.031,0.749,1.172,1.594
		c-0.653,0.935-0.704,2.339-1.078,3.51c-1.684,5.289-1.029,11.841,1.358,15.725c0.747,1.17,2.527,3.745,4.915,2.76
		c2.105-0.841,1.638-3.509,2.246-5.848c0.14-0.565,0.046-0.937,0.326-1.311v0.095c0.654,1.309,1.312,2.569,1.92,3.884
		c1.452,2.291,3.978,4.679,6.086,6.269c1.12,0.846,2.01,2.294,3.414,2.811v-0.142h-0.093c-0.281-0.42-0.701-0.608-1.076-0.935
		c-0.843-0.843-1.776-1.873-2.435-2.809c-1.965-2.62-3.699-5.523-5.24-8.519c-0.751-1.454-1.404-3.044-2.014-4.494
		c-0.28-0.559-0.28-1.404-0.749-1.684c-0.704,1.028-1.73,1.919-2.245,3.179c-0.89,2.015-0.982,4.495-1.313,7.07
		c-0.187,0.049-0.093,0-0.187,0.093c-1.496-0.374-2.011-1.918-2.574-3.225c-1.403-3.327-1.64-8.663-0.421-12.5
		c0.326-0.981,1.734-4.07,1.17-5.006c-0.282-0.893-1.218-1.403-1.731-2.108c-0.607-0.889-1.267-2.01-1.684-2.995
		c-1.124-2.62-1.688-5.523-2.901-8.143c-0.563-1.219-1.547-2.483-2.34-3.604c-0.892-1.264-1.873-2.153-2.576-3.649
		c-0.232-0.516-0.561-1.359-0.188-1.919c0.093-0.375,0.282-0.516,0.657-0.611c0.605-0.514,2.339,0.14,2.946,0.421
		c1.732,0.7,3.184,1.359,4.633,2.34c0.656,0.469,1.358,1.358,2.199,1.594h0.984c1.497,0.325,3.184,0.091,4.589,0.514
		c2.479,0.795,4.725,1.965,6.738,3.229c6.129,3.885,11.185,9.409,14.6,16.007c0.563,1.075,0.799,2.059,1.313,3.18
		c0.983,2.298,2.201,4.638,3.182,6.882c0.982,2.2,1.921,4.444,3.326,6.272c0.7,0.981,3.51,1.496,4.773,2.012
		c0.934,0.42,2.387,0.795,3.229,1.309c1.592,0.981,3.18,2.106,4.68,3.185C166.53,56.243,168.871,57.412,169.012,58.349"/>
	<path fill="#F29111" d="M173.473,110.056h0.968v-4.746h-1.455l-1.186,3.235l-1.29-3.235h-1.403v4.746h0.916v-3.611h0.053
		l1.351,3.611h0.698l1.349-3.611V110.056z M165.658,110.056h1.026v-3.94h1.345v-0.806h-3.768v0.806h1.396V110.056z"/>
</g>
</svg>
